G04 EAGLE Gerber RS-274X export*
G75*
%MOMM*%
%FSLAX34Y34*%
%LPD*%
%INSilkscreen Bottom*%
%IPPOS*%
%AMOC8*
5,1,8,0,0,1.08239X$1,22.5*%
G01*
%ADD10C,0.076200*%
%ADD11C,0.101600*%
%ADD12C,0.152400*%


D10*
X850519Y11434D02*
X844248Y11434D01*
X847384Y14569D02*
X847384Y8299D01*
X841164Y13002D02*
X838028Y16137D01*
X838028Y6731D01*
X834893Y6731D02*
X841164Y6731D01*
X831809Y6731D02*
X825538Y6731D01*
X831809Y6731D02*
X825538Y13002D01*
X825538Y14569D01*
X827106Y16137D01*
X830241Y16137D01*
X831809Y14569D01*
X822453Y16137D02*
X822453Y9866D01*
X819318Y6731D01*
X816183Y9866D01*
X816183Y16137D01*
X755523Y16137D02*
X755523Y6731D01*
X755523Y16137D02*
X750820Y16137D01*
X749252Y14569D01*
X749252Y13002D01*
X750820Y11434D01*
X749252Y9866D01*
X749252Y8299D01*
X750820Y6731D01*
X755523Y6731D01*
X755523Y11434D02*
X750820Y11434D01*
X801068Y14569D02*
X802636Y16137D01*
X805771Y16137D01*
X807339Y14569D01*
X807339Y8299D01*
X805771Y6731D01*
X802636Y6731D01*
X801068Y8299D01*
X801068Y11434D01*
X804204Y11434D01*
X782193Y15629D02*
X782193Y6223D01*
X782193Y15629D02*
X777490Y15629D01*
X775922Y14061D01*
X775922Y10926D01*
X777490Y9358D01*
X782193Y9358D01*
X779058Y9358D02*
X775922Y6223D01*
D11*
X458724Y106178D02*
X449911Y106178D01*
X469469Y243592D02*
X478282Y243592D01*
X473876Y247998D02*
X473876Y239185D01*
D10*
X732663Y16137D02*
X732663Y6731D01*
X729528Y9866D01*
X726392Y6731D01*
X726392Y16137D01*
D12*
X747343Y251721D02*
X758190Y251721D01*
X735076Y249689D02*
X724229Y249689D01*
X729653Y255112D02*
X729653Y244266D01*
X706374Y251721D02*
X695527Y251721D01*
X673608Y249435D02*
X662761Y249435D01*
X668185Y254858D02*
X668185Y244012D01*
D10*
X466979Y496703D02*
X462064Y496703D01*
X466979Y496703D02*
X466979Y493017D01*
X464522Y494246D01*
X463293Y494246D01*
X462064Y493017D01*
X462064Y490560D01*
X463293Y489331D01*
X465750Y489331D01*
X466979Y490560D01*
X459495Y491788D02*
X459495Y496703D01*
X459495Y491788D02*
X457037Y489331D01*
X454580Y491788D01*
X454580Y496703D01*
X452011Y493017D02*
X447096Y493017D01*
X449553Y490560D02*
X449553Y495475D01*
X444527Y495475D02*
X443298Y496703D01*
X440840Y496703D01*
X439612Y495475D01*
X439612Y494246D01*
X440840Y493017D01*
X442069Y493017D01*
X440840Y493017D02*
X439612Y491788D01*
X439612Y490560D01*
X440840Y489331D01*
X443298Y489331D01*
X444527Y490560D01*
X437042Y491788D02*
X437042Y496703D01*
X437042Y491788D02*
X434585Y489331D01*
X432128Y491788D01*
X432128Y496703D01*
X429558Y495475D02*
X428330Y496703D01*
X425872Y496703D01*
X424643Y495475D01*
X424643Y494246D01*
X425872Y493017D01*
X427101Y493017D01*
X425872Y493017D02*
X424643Y491788D01*
X424643Y490560D01*
X425872Y489331D01*
X428330Y489331D01*
X429558Y490560D01*
D12*
X750788Y289560D02*
X750790Y289679D01*
X750796Y289799D01*
X750806Y289918D01*
X750820Y290036D01*
X750838Y290154D01*
X750859Y290272D01*
X750885Y290388D01*
X750914Y290504D01*
X750948Y290619D01*
X750985Y290732D01*
X751026Y290844D01*
X751070Y290955D01*
X751118Y291065D01*
X751170Y291172D01*
X751225Y291278D01*
X751284Y291382D01*
X751347Y291484D01*
X751412Y291583D01*
X751481Y291681D01*
X751553Y291776D01*
X751628Y291869D01*
X751707Y291959D01*
X751788Y292047D01*
X751872Y292131D01*
X751959Y292213D01*
X752048Y292292D01*
X752140Y292368D01*
X752235Y292441D01*
X752332Y292511D01*
X752431Y292577D01*
X752533Y292640D01*
X752636Y292700D01*
X752741Y292756D01*
X752848Y292809D01*
X752957Y292858D01*
X753068Y292904D01*
X753180Y292945D01*
X753293Y292983D01*
X753407Y293018D01*
X753523Y293048D01*
X753639Y293075D01*
X753756Y293097D01*
X753874Y293116D01*
X753993Y293131D01*
X754112Y293142D01*
X754231Y293149D01*
X754350Y293152D01*
X754470Y293151D01*
X754589Y293146D01*
X754708Y293137D01*
X754827Y293124D01*
X754945Y293107D01*
X755062Y293087D01*
X755179Y293062D01*
X755295Y293033D01*
X755410Y293001D01*
X755524Y292965D01*
X755637Y292925D01*
X755748Y292881D01*
X755857Y292834D01*
X755965Y292783D01*
X756072Y292729D01*
X756176Y292671D01*
X756278Y292609D01*
X756379Y292545D01*
X756477Y292476D01*
X756573Y292405D01*
X756666Y292331D01*
X756757Y292253D01*
X756845Y292173D01*
X756930Y292089D01*
X757013Y292003D01*
X757093Y291914D01*
X757170Y291823D01*
X757243Y291729D01*
X757314Y291632D01*
X757381Y291534D01*
X757445Y291433D01*
X757506Y291330D01*
X757563Y291225D01*
X757616Y291119D01*
X757666Y291010D01*
X757713Y290900D01*
X757755Y290789D01*
X757794Y290676D01*
X757830Y290562D01*
X757861Y290446D01*
X757888Y290330D01*
X757912Y290213D01*
X757932Y290095D01*
X757948Y289977D01*
X757960Y289858D01*
X757968Y289739D01*
X757972Y289620D01*
X757972Y289500D01*
X757968Y289381D01*
X757960Y289262D01*
X757948Y289143D01*
X757932Y289025D01*
X757912Y288907D01*
X757888Y288790D01*
X757861Y288674D01*
X757830Y288558D01*
X757794Y288444D01*
X757755Y288331D01*
X757713Y288220D01*
X757666Y288110D01*
X757616Y288001D01*
X757563Y287895D01*
X757506Y287790D01*
X757445Y287687D01*
X757381Y287586D01*
X757314Y287488D01*
X757243Y287391D01*
X757170Y287297D01*
X757093Y287206D01*
X757013Y287117D01*
X756930Y287031D01*
X756845Y286947D01*
X756757Y286867D01*
X756666Y286789D01*
X756573Y286715D01*
X756477Y286644D01*
X756379Y286575D01*
X756278Y286511D01*
X756176Y286449D01*
X756072Y286391D01*
X755965Y286337D01*
X755857Y286286D01*
X755748Y286239D01*
X755637Y286195D01*
X755524Y286155D01*
X755410Y286119D01*
X755295Y286087D01*
X755179Y286058D01*
X755062Y286033D01*
X754945Y286013D01*
X754827Y285996D01*
X754708Y285983D01*
X754589Y285974D01*
X754470Y285969D01*
X754350Y285968D01*
X754231Y285971D01*
X754112Y285978D01*
X753993Y285989D01*
X753874Y286004D01*
X753756Y286023D01*
X753639Y286045D01*
X753523Y286072D01*
X753407Y286102D01*
X753293Y286137D01*
X753180Y286175D01*
X753068Y286216D01*
X752957Y286262D01*
X752848Y286311D01*
X752741Y286364D01*
X752636Y286420D01*
X752533Y286480D01*
X752431Y286543D01*
X752332Y286609D01*
X752235Y286679D01*
X752140Y286752D01*
X752048Y286828D01*
X751959Y286907D01*
X751872Y286989D01*
X751788Y287073D01*
X751707Y287161D01*
X751628Y287251D01*
X751553Y287344D01*
X751481Y287439D01*
X751412Y287537D01*
X751347Y287636D01*
X751284Y287738D01*
X751225Y287842D01*
X751170Y287948D01*
X751118Y288055D01*
X751070Y288165D01*
X751026Y288276D01*
X750985Y288388D01*
X750948Y288501D01*
X750914Y288616D01*
X750885Y288732D01*
X750859Y288848D01*
X750838Y288966D01*
X750820Y289084D01*
X750806Y289202D01*
X750796Y289321D01*
X750790Y289441D01*
X750788Y289560D01*
D10*
X172339Y512489D02*
X170771Y510921D01*
X169204Y510921D01*
X167636Y512489D01*
X167636Y520327D01*
X169204Y520327D02*
X166068Y520327D01*
X162984Y520327D02*
X162984Y510921D01*
X156713Y510921D01*
X147358Y518759D02*
X148926Y520327D01*
X152061Y520327D01*
X153629Y518759D01*
X153629Y512489D01*
X152061Y510921D01*
X148926Y510921D01*
X147358Y512489D01*
X144273Y512489D02*
X142706Y510921D01*
X141138Y510921D01*
X139570Y512489D01*
X139570Y520327D01*
X138003Y520327D02*
X141138Y520327D01*
X134918Y520327D02*
X134918Y510921D01*
X128648Y510921D01*
X119292Y518759D02*
X120860Y520327D01*
X123995Y520327D01*
X125563Y518759D01*
X125563Y512489D01*
X123995Y510921D01*
X120860Y510921D01*
X119292Y512489D01*
X116208Y512489D02*
X114640Y510921D01*
X113073Y510921D01*
X111505Y512489D01*
X111505Y520327D01*
X113073Y520327D02*
X109937Y520327D01*
X106853Y520327D02*
X106853Y510921D01*
X100582Y510921D01*
X91227Y518759D02*
X92795Y520327D01*
X95930Y520327D01*
X97498Y518759D01*
X97498Y512489D01*
X95930Y510921D01*
X92795Y510921D01*
X91227Y512489D01*
X88142Y512489D02*
X86575Y510921D01*
X85007Y510921D01*
X83439Y512489D01*
X83439Y520327D01*
X81872Y520327D02*
X85007Y520327D01*
X78787Y520327D02*
X78787Y510921D01*
X72516Y510921D01*
X63161Y518759D02*
X64729Y520327D01*
X67864Y520327D01*
X69432Y518759D01*
X69432Y512489D01*
X67864Y510921D01*
X64729Y510921D01*
X63161Y512489D01*
D12*
X521970Y146380D02*
X521970Y137922D01*
X529618Y137922D01*
X550418Y137922D02*
X550418Y146380D01*
X550418Y137922D02*
X542520Y137922D01*
D10*
X538267Y119725D02*
X538267Y113455D01*
X538267Y119725D02*
X536700Y121293D01*
X533564Y121293D01*
X531997Y119725D01*
X531997Y113455D01*
X533564Y111887D01*
X536700Y111887D01*
X538267Y113455D01*
X535132Y115022D02*
X531997Y111887D01*
X528912Y119725D02*
X527345Y121293D01*
X524209Y121293D01*
X522642Y119725D01*
X522642Y118158D01*
X524209Y116590D01*
X525777Y116590D01*
X524209Y116590D02*
X522642Y115022D01*
X522642Y113455D01*
X524209Y111887D01*
X527345Y111887D01*
X528912Y113455D01*
D12*
X569214Y137668D02*
X569214Y146126D01*
X569214Y137668D02*
X576862Y137668D01*
X597662Y137668D02*
X597662Y146126D01*
X597662Y137668D02*
X589764Y137668D01*
D10*
X593639Y118963D02*
X593639Y112693D01*
X593639Y118963D02*
X592072Y120531D01*
X588936Y120531D01*
X587369Y118963D01*
X587369Y112693D01*
X588936Y111125D01*
X592072Y111125D01*
X593639Y112693D01*
X590504Y114260D02*
X587369Y111125D01*
X579581Y111125D02*
X579581Y120531D01*
X584284Y115828D01*
X578014Y115828D01*
D12*
X613156Y136906D02*
X613156Y145364D01*
X613156Y136906D02*
X620804Y136906D01*
X641604Y136906D02*
X641604Y145364D01*
X641604Y136906D02*
X633706Y136906D01*
D10*
X638343Y119979D02*
X638343Y113709D01*
X638343Y119979D02*
X636776Y121547D01*
X633640Y121547D01*
X632073Y119979D01*
X632073Y113709D01*
X633640Y112141D01*
X636776Y112141D01*
X638343Y113709D01*
X635208Y115276D02*
X632073Y112141D01*
X628988Y121547D02*
X622718Y121547D01*
X628988Y121547D02*
X628988Y116844D01*
X625853Y118412D01*
X624285Y118412D01*
X622718Y116844D01*
X622718Y113709D01*
X624285Y112141D01*
X627421Y112141D01*
X628988Y113709D01*
X569695Y77349D02*
X569695Y69977D01*
X569695Y77349D02*
X566009Y77349D01*
X564781Y76121D01*
X564781Y73663D01*
X566009Y72434D01*
X569695Y72434D01*
X567238Y72434D02*
X564781Y69977D01*
X562211Y74892D02*
X559754Y77349D01*
X559754Y69977D01*
X562211Y69977D02*
X557296Y69977D01*
X554727Y77349D02*
X549812Y77349D01*
X549812Y76121D01*
X554727Y71206D01*
X554727Y69977D01*
X459105Y133223D02*
X459105Y140595D01*
X455419Y140595D01*
X454190Y139367D01*
X454190Y136909D01*
X455419Y135680D01*
X459105Y135680D01*
X456648Y135680D02*
X454190Y133223D01*
X451621Y138138D02*
X449163Y140595D01*
X449163Y133223D01*
X446706Y133223D02*
X451621Y133223D01*
X444137Y139367D02*
X442908Y140595D01*
X440451Y140595D01*
X439222Y139367D01*
X439222Y138138D01*
X440451Y136909D01*
X439222Y135680D01*
X439222Y134452D01*
X440451Y133223D01*
X442908Y133223D01*
X444137Y134452D01*
X444137Y135680D01*
X442908Y136909D01*
X444137Y138138D01*
X444137Y139367D01*
X442908Y136909D02*
X440451Y136909D01*
X505587Y66575D02*
X512959Y66575D01*
X512959Y70261D01*
X511731Y71489D01*
X509273Y71489D01*
X508044Y70261D01*
X508044Y66575D01*
X508044Y69032D02*
X505587Y71489D01*
X510502Y74059D02*
X512959Y76516D01*
X505587Y76516D01*
X505587Y74059D02*
X505587Y78974D01*
X506816Y81543D02*
X505587Y82772D01*
X505587Y85229D01*
X506816Y86458D01*
X511731Y86458D01*
X512959Y85229D01*
X512959Y82772D01*
X511731Y81543D01*
X510502Y81543D01*
X509273Y82772D01*
X509273Y86458D01*
X671957Y132715D02*
X679329Y132715D01*
X679329Y136401D01*
X678101Y137630D01*
X675643Y137630D01*
X674414Y136401D01*
X674414Y132715D01*
X674414Y135172D02*
X671957Y137630D01*
X671957Y140199D02*
X671957Y145114D01*
X671957Y140199D02*
X676872Y145114D01*
X678101Y145114D01*
X679329Y143885D01*
X679329Y141428D01*
X678101Y140199D01*
X678101Y147683D02*
X673186Y147683D01*
X678101Y147683D02*
X679329Y148912D01*
X679329Y151369D01*
X678101Y152598D01*
X673186Y152598D01*
X671957Y151369D01*
X671957Y148912D01*
X673186Y147683D01*
X678101Y152598D01*
D12*
X686816Y145110D02*
X686816Y136652D01*
X694464Y136652D01*
X715264Y136652D02*
X715264Y145110D01*
X715264Y136652D02*
X707366Y136652D01*
D10*
X730799Y124805D02*
X730799Y118535D01*
X730799Y124805D02*
X729232Y126373D01*
X726096Y126373D01*
X724529Y124805D01*
X724529Y118535D01*
X726096Y116967D01*
X729232Y116967D01*
X730799Y118535D01*
X727664Y120102D02*
X724529Y116967D01*
X718309Y124805D02*
X715174Y126373D01*
X718309Y124805D02*
X721444Y121670D01*
X721444Y118535D01*
X719877Y116967D01*
X716741Y116967D01*
X715174Y118535D01*
X715174Y120102D01*
X716741Y121670D01*
X721444Y121670D01*
D11*
X460755Y474726D02*
X462280Y476251D01*
X460755Y474726D02*
X459229Y474726D01*
X457704Y476251D01*
X457704Y483878D01*
X459229Y483878D02*
X456179Y483878D01*
X452925Y483878D02*
X452925Y474726D01*
X452925Y483878D02*
X448349Y483878D01*
X446824Y482353D01*
X446824Y479302D01*
X448349Y477777D01*
X452925Y477777D01*
X438994Y474726D02*
X438994Y483878D01*
X443570Y479302D01*
X437468Y479302D01*
D10*
X543433Y33809D02*
X550805Y33809D01*
X550805Y37495D01*
X549577Y38723D01*
X547119Y38723D01*
X545890Y37495D01*
X545890Y33809D01*
X545890Y36266D02*
X543433Y38723D01*
X543433Y41293D02*
X543433Y46208D01*
X543433Y41293D02*
X548348Y46208D01*
X549577Y46208D01*
X550805Y44979D01*
X550805Y42521D01*
X549577Y41293D01*
X543433Y48777D02*
X543433Y53692D01*
X543433Y48777D02*
X548348Y53692D01*
X549577Y53692D01*
X550805Y52463D01*
X550805Y50006D01*
X549577Y48777D01*
X489839Y81661D02*
X489839Y89033D01*
X486153Y89033D01*
X484924Y87805D01*
X484924Y85347D01*
X486153Y84118D01*
X489839Y84118D01*
X487382Y84118D02*
X484924Y81661D01*
X482355Y81661D02*
X477440Y81661D01*
X482355Y81661D02*
X477440Y86576D01*
X477440Y87805D01*
X478669Y89033D01*
X481126Y89033D01*
X482355Y87805D01*
X474871Y87805D02*
X473642Y89033D01*
X471185Y89033D01*
X469956Y87805D01*
X469956Y86576D01*
X471185Y85347D01*
X472413Y85347D01*
X471185Y85347D02*
X469956Y84118D01*
X469956Y82890D01*
X471185Y81661D01*
X473642Y81661D01*
X474871Y82890D01*
X502539Y173101D02*
X502539Y180473D01*
X498853Y180473D01*
X497624Y179245D01*
X497624Y176787D01*
X498853Y175558D01*
X502539Y175558D01*
X500082Y175558D02*
X497624Y173101D01*
X495055Y173101D02*
X490140Y173101D01*
X495055Y173101D02*
X490140Y178016D01*
X490140Y179245D01*
X491369Y180473D01*
X493826Y180473D01*
X495055Y179245D01*
X483885Y180473D02*
X483885Y173101D01*
X487571Y176787D02*
X483885Y180473D01*
X482656Y176787D02*
X487571Y176787D01*
X705331Y96145D02*
X705331Y88773D01*
X705331Y96145D02*
X701645Y96145D01*
X700417Y94917D01*
X700417Y92459D01*
X701645Y91230D01*
X705331Y91230D01*
X702874Y91230D02*
X700417Y88773D01*
X697847Y88773D02*
X692932Y88773D01*
X697847Y88773D02*
X692932Y93688D01*
X692932Y94917D01*
X694161Y96145D01*
X696619Y96145D01*
X697847Y94917D01*
X690363Y96145D02*
X685448Y96145D01*
X690363Y96145D02*
X690363Y92459D01*
X687906Y93688D01*
X686677Y93688D01*
X685448Y92459D01*
X685448Y90002D01*
X686677Y88773D01*
X689134Y88773D01*
X690363Y90002D01*
M02*
