G04 EAGLE Gerber RS-274X export*
G75*
%MOMM*%
%FSLAX34Y34*%
%LPD*%
%INSolderpaste Top*%
%IPPOS*%
%AMOC8*
5,1,8,0,0,1.08239X$1,22.5*%
G01*
%ADD10R,1.219200X2.235200*%
%ADD11R,3.600000X2.200000*%
%ADD12R,1.300000X1.500000*%
%ADD13R,1.500000X1.300000*%
%ADD14R,1.400000X1.000000*%
%ADD15R,2.500000X4.300000*%
%ADD16R,1.200000X1.200000*%
%ADD17R,2.200000X0.500000*%


D10*
X510794Y466598D03*
X487680Y466598D03*
X464566Y466598D03*
D11*
X487680Y404620D03*
D12*
X28330Y341630D03*
X45330Y341630D03*
X437760Y490220D03*
X420760Y490220D03*
X363610Y472440D03*
X380610Y472440D03*
D13*
X436880Y466970D03*
X436880Y449970D03*
X532892Y458588D03*
X532892Y441588D03*
X21590Y301870D03*
X21590Y284870D03*
D12*
X607704Y486918D03*
X624704Y486918D03*
D14*
X550340Y480060D03*
X572340Y489560D03*
X572340Y470560D03*
D12*
X556650Y303022D03*
X573650Y303022D03*
D15*
X331470Y321720D03*
X331470Y404720D03*
D13*
X703072Y45838D03*
X703072Y28838D03*
D16*
X640756Y18034D03*
X661756Y18034D03*
D17*
X94190Y247650D03*
X94190Y235050D03*
X94190Y222350D03*
X94190Y209650D03*
X157270Y247650D03*
X157270Y234950D03*
X157270Y222250D03*
X157270Y209550D03*
D12*
X215510Y246380D03*
X198510Y246380D03*
X394580Y446278D03*
X377580Y446278D03*
D13*
X21082Y235068D03*
X21082Y218068D03*
D12*
X465972Y65786D03*
X482972Y65786D03*
X320920Y448310D03*
X303920Y448310D03*
X303920Y473710D03*
X320920Y473710D03*
X119770Y90170D03*
X136770Y90170D03*
X119770Y119380D03*
X136770Y119380D03*
X136770Y152400D03*
X119770Y152400D03*
X206892Y189230D03*
X223892Y189230D03*
X212970Y158750D03*
X195970Y158750D03*
X194700Y100330D03*
X211700Y100330D03*
X211700Y129540D03*
X194700Y129540D03*
D13*
X53340Y284870D03*
X53340Y301870D03*
X55372Y237862D03*
X55372Y220862D03*
D14*
X556690Y436880D03*
X578690Y446380D03*
X578690Y427380D03*
D12*
X488832Y303276D03*
X505832Y303276D03*
X105274Y177546D03*
X88274Y177546D03*
X608466Y299974D03*
X625466Y299974D03*
D13*
X868426Y67682D03*
X868426Y50682D03*
D12*
X83938Y64008D03*
X66938Y64008D03*
X440300Y66040D03*
X423300Y66040D03*
M02*
